# xmcd
#
# Track frame offsets: 
#        150
#        14425
#        23793
#        36675
#        48710
#        59009
#        76030
#        86559
#        99979
#        110068
#        122166
#        132524
#        145011
#        155320
#        164817
#        178375
#        189045
#        200273
#        209999
#        220380
#        229179
#        242631
#        254410
#        266256
#
# Disc length: 3767 seconds
#
# Revision: 1
# Processed by: cddbd v1.5.2PL0 Copyright (c) Steve Scherf et al.
# Submitted via: ExactAudioCopy v1.3
#
DISCID=690eb518
DTITLE=Ronnie McDowell - A Tribute To The King
DYEAR=1979
DGENRE=country, rock
TTITLE0=The King Is Gone
TTITLE1=Baby Let's Play House
TTITLE2=Heartbreak Hotel
TTITLE3=I Was The One
TTITLE4=My Baby Left Me
TTITLE5=Love Me Tender
TTITLE6=Lawdy Miss Clawdy
TTITLE7=Love Me
TTITLE8=Got A Lot O' Livin' To Do
TTITLE9=Mean Woman Blues
TTITLE10=Treat Me Nice
TTITLE11=Don't
TTITLE12=King Creole
TTITLE13=As Long As I Have You
TTITLE14=One Night With You
TTITLE15=(Now And Then There's) A Fool Such As I
TTITLE16=The Girl Of My Best Friend
TTITLE17=His Latest Flame (Marie's The Name)
TTITLE18=She's Not You
TTITLE19=(You're The) Devil In Disguise
TTITLE20=One Broken Heart For Sale
TTITLE21=It Hurts Me
TTITLE22=Crying In The Chapel
TTITLE23=Tupelo's Too Far
EXTD=
EXTT0=
EXTT1=
EXTT2=
EXTT3=
EXTT4=
EXTT5=
EXTT6=
EXTT7=
EXTT8=
EXTT9=
EXTT10=
EXTT11=
EXTT12=
EXTT13=
EXTT14=
EXTT15=
EXTT16=
EXTT17=
EXTT18=
EXTT19=
EXTT20=
EXTT21=
EXTT22=
EXTT23=
PLAYORDER=
